<svg width="24" height="24" viewBox="0 0 24 24" fill="none" xmlns="http://www.w3.org/2000/svg">
<path fill-rule="evenodd" clip-rule="evenodd" d="M1.25 12C1.25 6.08579 6.08579 1.25 12 1.25C17.9142 1.25 22.75 6.08579 22.75 12C22.75 17.9142 17.9142 22.75 12 22.75C6.08579 22.75 1.25 17.9142 1.25 12ZM16.7799 9.70081C17.073 9.40818 17.0734 8.9333 16.7808 8.64015C16.4882 8.347 16.0133 8.34658 15.7201 8.63922L10.5805 13.7698L8.28033 11.4697C7.98744 11.1768 7.51256 11.1768 7.21967 11.4697C6.92678 11.7626 6.92678 12.2374 7.21967 12.5303L10.0497 15.3603C10.3424 15.6531 10.8169 15.6533 11.1099 15.3608L16.7799 9.70081Z" fill="#68BE79"/>
</svg>
